<svg xmlns="http://www.w3.org/2000/svg" version="1.1" xmlns:xlink="http://www.w3.org/1999/xlink" xmlns:svgjs="http://svgjs.dev/svgjs" width="1440" height="560" preserveAspectRatio="none" viewBox="0 0 1440 560"><g mask="url(&quot;#SvgjsMask1000&quot;)" fill="none"><rect width="1440" height="560" x="0" y="0" fill="#0e2a47"></rect><path d="M-103.94 547.09L-103.94 547.09" stroke="#132e65" stroke-width="1.5"></path><path d="M-103.94 547.09L-46.39 702.87" stroke="#132e65" stroke-width="1.5"></path><path d="M-103.94 547.09L63.97 658.92" stroke="#132e65" stroke-width="1.5"></path><path d="M-103.94 547.09L94.98 507.76" stroke="#132e65" stroke-width="1.5"></path><path d="M-46.39 702.87L-46.39 702.87" stroke="#132e65" stroke-width="1.5"></path><path d="M-46.39 702.87L63.97 658.92" stroke="#132e65" stroke-width="1.5"></path><path d="M-46.39 702.87L94.98 507.76" stroke="#132e65" stroke-width="1.5"></path><path d="M93.14 385.43L93.14 385.43" stroke="#132e65" stroke-width="1.5"></path><path d="M93.14 385.43L94.98 507.76" stroke="#132e65" stroke-width="1.5"></path><path d="M93.14 385.43L233.8 399.55" stroke="#132e65" stroke-width="1.5"></path><path d="M93.14 385.43L-103.94 547.09" stroke="#132e65" stroke-width="1.5"></path><path d="M93.14 385.43L63.97 658.92" stroke="#132e65" stroke-width="1.5"></path><path d="M93.14 385.43L376.99 392.98" stroke="#132e65" stroke-width="1.5"></path><path d="M94.98 507.76L94.98 507.76" stroke="#132e65" stroke-width="1.5"></path><path d="M94.98 507.76L63.97 658.92" stroke="#132e65" stroke-width="1.5"></path><path d="M63.97 658.92L63.97 658.92" stroke="#132e65" stroke-width="1.5"></path><path d="M63.97 658.92L248.12 641.32" stroke="#132e65" stroke-width="1.5"></path><path d="M233.8 399.55L233.8 399.55" stroke="#132e65" stroke-width="1.5"></path><path d="M233.8 399.55L376.99 392.98" stroke="#132e65" stroke-width="1.5"></path><path d="M233.8 399.55L94.98 507.76" stroke="#132e65" stroke-width="1.5"></path><path d="M248.12 641.32L248.12 641.32" stroke="#132e65" stroke-width="1.5"></path><path d="M248.12 641.32L387.4 510.48" stroke="#132e65" stroke-width="1.5"></path><path d="M248.12 641.32L94.98 507.76" stroke="#132e65" stroke-width="1.5"></path><path d="M248.12 641.32L233.8 399.55" stroke="#132e65" stroke-width="1.5"></path><path d="M248.12 641.32L497.56 693.91" stroke="#132e65" stroke-width="1.5"></path><path d="M248.12 641.32L376.99 392.98" stroke="#132e65" stroke-width="1.5"></path><path d="M376.99 392.98L376.99 392.98" stroke="#132e65" stroke-width="1.5"></path><path d="M376.99 392.98L387.4 510.48" stroke="#132e65" stroke-width="1.5"></path><path d="M376.99 392.98L497.1 349.45" stroke="#132e65" stroke-width="1.5"></path><path d="M387.4 510.48L387.4 510.48" stroke="#132e65" stroke-width="1.5"></path><path d="M387.4 510.48L519.15 546.8" stroke="#132e65" stroke-width="1.5"></path><path d="M387.4 510.48L233.8 399.55" stroke="#132e65" stroke-width="1.5"></path><path d="M497.1 349.45L497.1 349.45" stroke="#132e65" stroke-width="1.5"></path><path d="M497.1 349.45L679.39 365.35" stroke="#132e65" stroke-width="1.5"></path><path d="M497.1 349.45L387.4 510.48" stroke="#132e65" stroke-width="1.5"></path><path d="M497.1 349.45L519.15 546.8" stroke="#132e65" stroke-width="1.5"></path><path d="M497.1 349.45L669.09 220.56" stroke="#132e65" stroke-width="1.5"></path><path d="M519.15 546.8L519.15 546.8" stroke="#132e65" stroke-width="1.5"></path><path d="M519.15 546.8L497.56 693.91" stroke="#132e65" stroke-width="1.5"></path><path d="M497.56 693.91L497.56 693.91" stroke="#132e65" stroke-width="1.5"></path><path d="M497.56 693.91L387.4 510.48" stroke="#132e65" stroke-width="1.5"></path><path d="M497.56 693.91L711.97 702.16" stroke="#132e65" stroke-width="1.5"></path><path d="M669.09 220.56L669.09 220.56" stroke="#132e65" stroke-width="1.5"></path><path d="M669.09 220.56L810.86 202.15" stroke="#132e65" stroke-width="1.5"></path><path d="M669.09 220.56L679.39 365.35" stroke="#132e65" stroke-width="1.5"></path><path d="M669.09 220.56L814.3 371.78" stroke="#132e65" stroke-width="1.5"></path><path d="M669.09 220.56L708.04 508.76" stroke="#132e65" stroke-width="1.5"></path><path d="M679.39 365.35L679.39 365.35" stroke="#132e65" stroke-width="1.5"></path><path d="M679.39 365.35L814.3 371.78" stroke="#132e65" stroke-width="1.5"></path><path d="M708.04 508.76L708.04 508.76" stroke="#132e65" stroke-width="1.5"></path><path d="M708.04 508.76L679.39 365.35" stroke="#132e65" stroke-width="1.5"></path><path d="M708.04 508.76L814.3 371.78" stroke="#132e65" stroke-width="1.5"></path><path d="M711.97 702.16L711.97 702.16" stroke="#132e65" stroke-width="1.5"></path><path d="M711.97 702.16L845.25 660.14" stroke="#132e65" stroke-width="1.5"></path><path d="M711.97 702.16L708.04 508.76" stroke="#132e65" stroke-width="1.5"></path><path d="M810.86 202.15L810.86 202.15" stroke="#132e65" stroke-width="1.5"></path><path d="M810.86 202.15L814.3 371.78" stroke="#132e65" stroke-width="1.5"></path><path d="M810.86 202.15L984.51 237.57" stroke="#132e65" stroke-width="1.5"></path><path d="M810.86 202.15L980.3 98.62" stroke="#132e65" stroke-width="1.5"></path><path d="M814.3 371.78L814.3 371.78" stroke="#132e65" stroke-width="1.5"></path><path d="M814.3 371.78L957.2 342.66" stroke="#132e65" stroke-width="1.5"></path><path d="M814.3 371.78L970.24 508.9" stroke="#132e65" stroke-width="1.5"></path><path d="M845.25 660.14L845.25 660.14" stroke="#132e65" stroke-width="1.5"></path><path d="M845.25 660.14L942.15 672.41" stroke="#132e65" stroke-width="1.5"></path><path d="M957.62 -46.3L957.62 -46.3" stroke="#132e65" stroke-width="1.5"></path><path d="M957.62 -46.3L980.3 98.62" stroke="#132e65" stroke-width="1.5"></path><path d="M957.62 -46.3L1121.47 -51.73" stroke="#132e65" stroke-width="1.5"></path><path d="M957.62 -46.3L1156.09 50.69" stroke="#132e65" stroke-width="1.5"></path><path d="M980.3 98.62L980.3 98.62" stroke="#132e65" stroke-width="1.5"></path><path d="M980.3 98.62L984.51 237.57" stroke="#132e65" stroke-width="1.5"></path><path d="M984.51 237.57L984.51 237.57" stroke="#132e65" stroke-width="1.5"></path><path d="M984.51 237.57L957.2 342.66" stroke="#132e65" stroke-width="1.5"></path><path d="M984.51 237.57L1145.77 211.89" stroke="#132e65" stroke-width="1.5"></path><path d="M984.51 237.57L814.3 371.78" stroke="#132e65" stroke-width="1.5"></path><path d="M984.51 237.57L1156.09 50.69" stroke="#132e65" stroke-width="1.5"></path><path d="M957.2 342.66L957.2 342.66" stroke="#132e65" stroke-width="1.5"></path><path d="M957.2 342.66L970.24 508.9" stroke="#132e65" stroke-width="1.5"></path><path d="M957.2 342.66L810.86 202.15" stroke="#132e65" stroke-width="1.5"></path><path d="M957.2 342.66L1145.77 211.89" stroke="#132e65" stroke-width="1.5"></path><path d="M970.24 508.9L970.24 508.9" stroke="#132e65" stroke-width="1.5"></path><path d="M970.24 508.9L942.15 672.41" stroke="#132e65" stroke-width="1.5"></path><path d="M942.15 672.41L942.15 672.41" stroke="#132e65" stroke-width="1.5"></path><path d="M942.15 672.41L1104.4 701.09" stroke="#132e65" stroke-width="1.5"></path><path d="M1121.47 -51.73L1121.47 -51.73" stroke="#132e65" stroke-width="1.5"></path><path d="M1121.47 -51.73L1156.09 50.69" stroke="#132e65" stroke-width="1.5"></path><path d="M1121.47 -51.73L1243.72 -61.87" stroke="#132e65" stroke-width="1.5"></path><path d="M1121.47 -51.73L980.3 98.62" stroke="#132e65" stroke-width="1.5"></path><path d="M1121.47 -51.73L1298.73 83.66" stroke="#132e65" stroke-width="1.5"></path><path d="M1156.09 50.69L1156.09 50.69" stroke="#132e65" stroke-width="1.5"></path><path d="M1156.09 50.69L1243.72 -61.87" stroke="#132e65" stroke-width="1.5"></path><path d="M1156.09 50.69L1298.73 83.66" stroke="#132e65" stroke-width="1.5"></path><path d="M1156.09 50.69L1145.77 211.89" stroke="#132e65" stroke-width="1.5"></path><path d="M1156.09 50.69L980.3 98.62" stroke="#132e65" stroke-width="1.5"></path><path d="M1145.77 211.89L1145.77 211.89" stroke="#132e65" stroke-width="1.5"></path><path d="M1145.77 211.89L1298.73 83.66" stroke="#132e65" stroke-width="1.5"></path><path d="M1145.77 211.89L980.3 98.62" stroke="#132e65" stroke-width="1.5"></path><path d="M1145.77 211.89L1301.03 344.34" stroke="#132e65" stroke-width="1.5"></path><path d="M1136.31 547.15L1136.31 547.15" stroke="#132e65" stroke-width="1.5"></path><path d="M1136.31 547.15L1104.4 701.09" stroke="#132e65" stroke-width="1.5"></path><path d="M1136.31 547.15L1285.85 494.61" stroke="#132e65" stroke-width="1.5"></path><path d="M1136.31 547.15L1276.58 638.46" stroke="#132e65" stroke-width="1.5"></path><path d="M1136.31 547.15L970.24 508.9" stroke="#132e65" stroke-width="1.5"></path><path d="M1136.31 547.15L942.15 672.41" stroke="#132e65" stroke-width="1.5"></path><path d="M1136.31 547.15L1301.03 344.34" stroke="#132e65" stroke-width="1.5"></path><path d="M1104.4 701.09L1104.4 701.09" stroke="#132e65" stroke-width="1.5"></path><path d="M1104.4 701.09L1276.58 638.46" stroke="#132e65" stroke-width="1.5"></path><path d="M1104.4 701.09L970.24 508.9" stroke="#132e65" stroke-width="1.5"></path><path d="M1104.4 701.09L845.25 660.14" stroke="#132e65" stroke-width="1.5"></path><path d="M1243.72 -61.87L1243.72 -61.87" stroke="#132e65" stroke-width="1.5"></path><path d="M1243.72 -61.87L1398.53 -54.58" stroke="#132e65" stroke-width="1.5"></path><path d="M1243.72 -61.87L1298.73 83.66" stroke="#132e65" stroke-width="1.5"></path><path d="M1243.72 -61.87L957.62 -46.3" stroke="#132e65" stroke-width="1.5"></path><path d="M1243.72 -61.87L1145.77 211.89" stroke="#132e65" stroke-width="1.5"></path><path d="M1298.73 83.66L1298.73 83.66" stroke="#132e65" stroke-width="1.5"></path><path d="M1298.73 83.66L1398.53 -54.58" stroke="#132e65" stroke-width="1.5"></path><path d="M1301.03 344.34L1301.03 344.34" stroke="#132e65" stroke-width="1.5"></path><path d="M1301.03 344.34L1405.16 386.34" stroke="#132e65" stroke-width="1.5"></path><path d="M1301.03 344.34L1285.85 494.61" stroke="#132e65" stroke-width="1.5"></path><path d="M1301.03 344.34L1398.5 228.95" stroke="#132e65" stroke-width="1.5"></path><path d="M1301.03 344.34L1409.59 536.21" stroke="#132e65" stroke-width="1.5"></path><path d="M1285.85 494.61L1285.85 494.61" stroke="#132e65" stroke-width="1.5"></path><path d="M1285.85 494.61L1409.59 536.21" stroke="#132e65" stroke-width="1.5"></path><path d="M1285.85 494.61L1276.58 638.46" stroke="#132e65" stroke-width="1.5"></path><path d="M1285.85 494.61L1405.16 386.34" stroke="#132e65" stroke-width="1.5"></path><path d="M1276.58 638.46L1276.58 638.46" stroke="#132e65" stroke-width="1.5"></path><path d="M1276.58 638.46L1409.59 536.21" stroke="#132e65" stroke-width="1.5"></path><path d="M1398.53 -54.58L1398.53 -54.58" stroke="#132e65" stroke-width="1.5"></path><path d="M1398.53 -54.58L1561.42 -81.89" stroke="#132e65" stroke-width="1.5"></path><path d="M1398.53 -54.58L1551.43 61.34" stroke="#132e65" stroke-width="1.5"></path><path d="M1398.53 -54.58L1156.09 50.69" stroke="#132e65" stroke-width="1.5"></path><path d="M1398.53 -54.58L1121.47 -51.73" stroke="#132e65" stroke-width="1.5"></path><path d="M1398.5 228.95L1398.5 228.95" stroke="#132e65" stroke-width="1.5"></path><path d="M1398.5 228.95L1405.16 386.34" stroke="#132e65" stroke-width="1.5"></path><path d="M1398.5 228.95L1298.73 83.66" stroke="#132e65" stroke-width="1.5"></path><path d="M1405.16 386.34L1405.16 386.34" stroke="#132e65" stroke-width="1.5"></path><path d="M1405.16 386.34L1409.59 536.21" stroke="#132e65" stroke-width="1.5"></path><path d="M1409.59 536.21L1409.59 536.21" stroke="#132e65" stroke-width="1.5"></path><path d="M1409.59 536.21L1578.74 525.41" stroke="#132e65" stroke-width="1.5"></path><path d="M1409.59 536.21L1566.43 689.55" stroke="#132e65" stroke-width="1.5"></path><path d="M1561.42 -81.89L1561.42 -81.89" stroke="#132e65" stroke-width="1.5"></path><path d="M1561.42 -81.89L1551.43 61.34" stroke="#132e65" stroke-width="1.5"></path><path d="M1561.42 -81.89L1605.14 195.05" stroke="#132e65" stroke-width="1.5"></path><path d="M1551.43 61.34L1551.43 61.34" stroke="#132e65" stroke-width="1.5"></path><path d="M1551.43 61.34L1605.14 195.05" stroke="#132e65" stroke-width="1.5"></path><path d="M1605.14 195.05L1605.14 195.05" stroke="#132e65" stroke-width="1.5"></path><path d="M1605.14 195.05L1587.57 344.33" stroke="#132e65" stroke-width="1.5"></path><path d="M1587.57 344.33L1587.57 344.33" stroke="#132e65" stroke-width="1.5"></path><path d="M1587.57 344.33L1578.74 525.41" stroke="#132e65" stroke-width="1.5"></path><path d="M1587.57 344.33L1405.16 386.34" stroke="#132e65" stroke-width="1.5"></path><path d="M1587.57 344.33L1398.5 228.95" stroke="#132e65" stroke-width="1.5"></path><path d="M1578.74 525.41L1578.74 525.41" stroke="#132e65" stroke-width="1.5"></path><path d="M1578.74 525.41L1566.43 689.55" stroke="#132e65" stroke-width="1.5"></path><path d="M1578.74 525.41L1405.16 386.34" stroke="#132e65" stroke-width="1.5"></path><path d="M1578.74 525.41L1285.85 494.61" stroke="#132e65" stroke-width="1.5"></path><path d="M1566.43 689.55L1566.43 689.55" stroke="#132e65" stroke-width="1.5"></path><circle r="5" cx="-103.94" cy="547.09" fill="#132e65"></circle><circle r="5" cx="-46.39" cy="702.87" fill="#132e65"></circle><circle r="5" cx="93.14" cy="385.43" fill="#132e65"></circle><circle r="5" cx="94.98" cy="507.76" fill="#132e65"></circle><circle r="5" cx="63.97" cy="658.92" fill="#132e65"></circle><circle r="5" cx="233.8" cy="399.55" fill="#132e65"></circle><circle r="5" cx="248.12" cy="641.32" fill="#132e65"></circle><circle r="5" cx="376.99" cy="392.98" fill="#132e65"></circle><circle r="5" cx="387.4" cy="510.48" fill="#132e65"></circle><circle r="5" cx="497.1" cy="349.45" fill="#132e65"></circle><circle r="5" cx="519.15" cy="546.8" fill="#132e65"></circle><circle r="5" cx="497.56" cy="693.91" fill="#132e65"></circle><circle r="5" cx="669.09" cy="220.56" fill="#132e65"></circle><circle r="5" cx="679.39" cy="365.35" fill="#132e65"></circle><circle r="5" cx="708.04" cy="508.76" fill="#132e65"></circle><circle r="5" cx="711.97" cy="702.16" fill="#132e65"></circle><circle r="5" cx="810.86" cy="202.15" fill="#132e65"></circle><circle r="5" cx="814.3" cy="371.78" fill="#132e65"></circle><circle r="5" cx="845.25" cy="660.14" fill="#132e65"></circle><circle r="5" cx="957.62" cy="-46.3" fill="#132e65"></circle><circle r="5" cx="980.3" cy="98.62" fill="#132e65"></circle><circle r="5" cx="984.51" cy="237.57" fill="#132e65"></circle><circle r="5" cx="957.2" cy="342.66" fill="#132e65"></circle><circle r="5" cx="970.24" cy="508.9" fill="#132e65"></circle><circle r="5" cx="942.15" cy="672.41" fill="#132e65"></circle><circle r="5" cx="1121.47" cy="-51.73" fill="#132e65"></circle><circle r="5" cx="1156.09" cy="50.69" fill="#132e65"></circle><circle r="5" cx="1145.77" cy="211.89" fill="#132e65"></circle><circle r="5" cx="1136.31" cy="547.15" fill="#132e65"></circle><circle r="5" cx="1104.4" cy="701.09" fill="#132e65"></circle><circle r="5" cx="1243.72" cy="-61.87" fill="#132e65"></circle><circle r="5" cx="1298.73" cy="83.66" fill="#132e65"></circle><circle r="5" cx="1301.03" cy="344.34" fill="#132e65"></circle><circle r="5" cx="1285.85" cy="494.61" fill="#132e65"></circle><circle r="5" cx="1276.58" cy="638.46" fill="#132e65"></circle><circle r="5" cx="1398.53" cy="-54.58" fill="#132e65"></circle><circle r="5" cx="1398.5" cy="228.95" fill="#132e65"></circle><circle r="5" cx="1405.16" cy="386.34" fill="#132e65"></circle><circle r="5" cx="1409.59" cy="536.21" fill="#132e65"></circle><circle r="5" cx="1561.42" cy="-81.89" fill="#132e65"></circle><circle r="5" cx="1551.43" cy="61.34" fill="#132e65"></circle><circle r="5" cx="1605.14" cy="195.05" fill="#132e65"></circle><circle r="5" cx="1587.57" cy="344.33" fill="#132e65"></circle><circle r="5" cx="1578.74" cy="525.41" fill="#132e65"></circle><circle r="5" cx="1566.43" cy="689.55" fill="#132e65"></circle><path d="M648.01 667.33L648.01 667.33" stroke="hsl(228.5, 77.2%, 51.5%)" stroke-width="1.5"></path><path d="M648.01 667.33L530.55 644.18" stroke="hsl(228.5, 77.2%, 51.5%)" stroke-width="1.5"></path><path d="M648.01 667.33L669.45 514.57" stroke="hsl(228.5, 77.2%, 51.5%)" stroke-width="1.5"></path><path d="M648.01 667.33L832.72 656.56" stroke="hsl(228.5, 77.2%, 51.5%)" stroke-width="1.5"></path><path d="M832.72 656.56L832.72 656.56" stroke="hsl(228.5, 77.2%, 51.5%)" stroke-width="1.5"></path><path d="M832.72 656.56L818.54 502.83" stroke="hsl(228.5, 77.2%, 51.5%)" stroke-width="1.5"></path><path d="M1000.18 503.65L1000.18 503.65" stroke="hsl(228.5, 77.2%, 51.5%)" stroke-width="1.5"></path><path d="M1000.18 503.65L989.68 406.45" stroke="hsl(228.5, 77.2%, 51.5%)" stroke-width="1.5"></path><path d="M1000.18 503.65L818.54 502.83" stroke="hsl(228.5, 77.2%, 51.5%)" stroke-width="1.5"></path><path d="M1445.94 85.92L1445.94 85.92" stroke="hsl(228.5, 77.2%, 51.5%)" stroke-width="1.5"></path><path d="M1445.94 85.92L1446.56 -45.66" stroke="hsl(228.5, 77.2%, 51.5%)" stroke-width="1.5"></path><path d="M1445.94 85.92L1393.23 218.57" stroke="hsl(228.5, 77.2%, 51.5%)" stroke-width="1.5"></path><path d="M1393.23 218.57L1393.23 218.57" stroke="hsl(228.5, 77.2%, 51.5%)" stroke-width="1.5"></path><path d="M1393.23 218.57L1271.45 201.88" stroke="hsl(228.5, 77.2%, 51.5%)" stroke-width="1.5"></path><path d="M1393.23 218.57L1537.68 221.55" stroke="hsl(228.5, 77.2%, 51.5%)" stroke-width="1.5"></path><path d="M1393.23 218.57L1293.55 99.86" stroke="hsl(228.5, 77.2%, 51.5%)" stroke-width="1.5"></path><path d="M1393.23 218.57L1291.15 340.75" stroke="hsl(228.5, 77.2%, 51.5%)" stroke-width="1.5"></path><path d="M1393.23 218.57L1402.81 379.78" stroke="hsl(228.5, 77.2%, 51.5%)" stroke-width="1.5"></path><path d="M1402.81 379.78L1402.81 379.78" stroke="hsl(228.5, 77.2%, 51.5%)" stroke-width="1.5"></path><path d="M1402.81 379.78L1291.15 340.75" stroke="hsl(228.5, 77.2%, 51.5%)" stroke-width="1.5"></path><path d="M1611.03 361.42L1611.03 361.42" stroke="hsl(228.5, 77.2%, 51.5%)" stroke-width="1.5"></path><path d="M1611.03 361.42L1602.65 513.34" stroke="hsl(228.5, 77.2%, 51.5%)" stroke-width="1.5"></path><path d="M1611.03 361.42L1537.68 221.55" stroke="hsl(228.5, 77.2%, 51.5%)" stroke-width="1.5"></path><path d="M1611.03 361.42L1402.81 379.78" stroke="hsl(228.5, 77.2%, 51.5%)" stroke-width="1.5"></path><path d="M1611.03 361.42L1604.25 102.97" stroke="hsl(228.5, 77.2%, 51.5%)" stroke-width="1.5"></path><path d="M1611.03 361.42L1393.23 218.57" stroke="hsl(228.5, 77.2%, 51.5%)" stroke-width="1.5"></path><path d="M1611.03 361.42L1436.29 562.1" stroke="hsl(228.5, 77.2%, 51.5%)" stroke-width="1.5"></path><path d="M-110.95 493.32L-110.95 493.32" stroke="hsl(228.5, 77.2%, 51.5%)" stroke-width="1.5"></path><path d="M-110.95 493.32L64.92 523.25" stroke="hsl(228.5, 77.2%, 51.5%)" stroke-width="1.5"></path><path d="M-110.95 493.32L-79.6 672.9" stroke="hsl(228.5, 77.2%, 51.5%)" stroke-width="1.5"></path><path d="M-79.6 672.9L-79.6 672.9" stroke="hsl(228.5, 77.2%, 51.5%)" stroke-width="1.5"></path><path d="M-79.6 672.9L87.82 641.49" stroke="hsl(228.5, 77.2%, 51.5%)" stroke-width="1.5"></path><path d="M-79.6 672.9L64.92 523.25" stroke="hsl(228.5, 77.2%, 51.5%)" stroke-width="1.5"></path><path d="M-79.6 672.9L192.61 517.94" stroke="hsl(228.5, 77.2%, 51.5%)" stroke-width="1.5"></path><path d="M-79.6 672.9L258.62 677.48" stroke="hsl(228.5, 77.2%, 51.5%)" stroke-width="1.5"></path><path d="M-79.6 672.9L368.75 674.34" stroke="hsl(228.5, 77.2%, 51.5%)" stroke-width="1.5"></path><path d="M64.92 523.25L64.92 523.25" stroke="hsl(228.5, 77.2%, 51.5%)" stroke-width="1.5"></path><path d="M64.92 523.25L87.82 641.49" stroke="hsl(228.5, 77.2%, 51.5%)" stroke-width="1.5"></path><path d="M64.92 523.25L192.61 517.94" stroke="hsl(228.5, 77.2%, 51.5%)" stroke-width="1.5"></path><path d="M87.82 641.49L87.82 641.49" stroke="hsl(228.5, 77.2%, 51.5%)" stroke-width="1.5"></path><path d="M87.82 641.49L192.61 517.94" stroke="hsl(228.5, 77.2%, 51.5%)" stroke-width="1.5"></path><path d="M192.61 517.94L192.61 517.94" stroke="hsl(228.5, 77.2%, 51.5%)" stroke-width="1.5"></path><path d="M192.61 517.94L258.62 677.48" stroke="hsl(228.5, 77.2%, 51.5%)" stroke-width="1.5"></path><path d="M192.61 517.94L385.26 539.39" stroke="hsl(228.5, 77.2%, 51.5%)" stroke-width="1.5"></path><path d="M192.61 517.94L368.75 674.34" stroke="hsl(228.5, 77.2%, 51.5%)" stroke-width="1.5"></path><path d="M258.62 677.48L258.62 677.48" stroke="hsl(228.5, 77.2%, 51.5%)" stroke-width="1.5"></path><path d="M258.62 677.48L368.75 674.34" stroke="hsl(228.5, 77.2%, 51.5%)" stroke-width="1.5"></path><path d="M258.62 677.48L87.82 641.49" stroke="hsl(228.5, 77.2%, 51.5%)" stroke-width="1.5"></path><path d="M385.26 539.39L385.26 539.39" stroke="hsl(228.5, 77.2%, 51.5%)" stroke-width="1.5"></path><path d="M385.26 539.39L368.75 674.34" stroke="hsl(228.5, 77.2%, 51.5%)" stroke-width="1.5"></path><path d="M385.26 539.39L519.97 507.11" stroke="hsl(228.5, 77.2%, 51.5%)" stroke-width="1.5"></path><path d="M385.26 539.39L530.55 644.18" stroke="hsl(228.5, 77.2%, 51.5%)" stroke-width="1.5"></path><path d="M368.75 674.34L368.75 674.34" stroke="hsl(228.5, 77.2%, 51.5%)" stroke-width="1.5"></path><path d="M368.75 674.34L530.55 644.18" stroke="hsl(228.5, 77.2%, 51.5%)" stroke-width="1.5"></path><path d="M368.75 674.34L519.97 507.11" stroke="hsl(228.5, 77.2%, 51.5%)" stroke-width="1.5"></path><path d="M519.97 507.11L519.97 507.11" stroke="hsl(228.5, 77.2%, 51.5%)" stroke-width="1.5"></path><path d="M519.97 507.11L530.55 644.18" stroke="hsl(228.5, 77.2%, 51.5%)" stroke-width="1.5"></path><path d="M530.55 644.18L530.55 644.18" stroke="hsl(228.5, 77.2%, 51.5%)" stroke-width="1.5"></path><path d="M530.55 644.18L669.45 514.57" stroke="hsl(228.5, 77.2%, 51.5%)" stroke-width="1.5"></path><path d="M530.55 644.18L258.62 677.48" stroke="hsl(228.5, 77.2%, 51.5%)" stroke-width="1.5"></path><path d="M669.45 514.57L669.45 514.57" stroke="hsl(228.5, 77.2%, 51.5%)" stroke-width="1.5"></path><path d="M669.45 514.57L818.54 502.83" stroke="hsl(228.5, 77.2%, 51.5%)" stroke-width="1.5"></path><path d="M669.45 514.57L519.97 507.11" stroke="hsl(228.5, 77.2%, 51.5%)" stroke-width="1.5"></path><path d="M818.54 502.83L818.54 502.83" stroke="hsl(228.5, 77.2%, 51.5%)" stroke-width="1.5"></path><path d="M818.54 502.83L989.68 406.45" stroke="hsl(228.5, 77.2%, 51.5%)" stroke-width="1.5"></path><path d="M818.54 502.83L648.01 667.33" stroke="hsl(228.5, 77.2%, 51.5%)" stroke-width="1.5"></path><path d="M989.68 406.45L989.68 406.45" stroke="hsl(228.5, 77.2%, 51.5%)" stroke-width="1.5"></path><path d="M989.68 406.45L1117.51 344.38" stroke="hsl(228.5, 77.2%, 51.5%)" stroke-width="1.5"></path><path d="M989.68 406.45L1093.37 248.16" stroke="hsl(228.5, 77.2%, 51.5%)" stroke-width="1.5"></path><path d="M1093.37 248.16L1093.37 248.16" stroke="hsl(228.5, 77.2%, 51.5%)" stroke-width="1.5"></path><path d="M1093.37 248.16L1117.51 344.38" stroke="hsl(228.5, 77.2%, 51.5%)" stroke-width="1.5"></path><path d="M1093.37 248.16L1271.45 201.88" stroke="hsl(228.5, 77.2%, 51.5%)" stroke-width="1.5"></path><path d="M1093.37 248.16L1291.15 340.75" stroke="hsl(228.5, 77.2%, 51.5%)" stroke-width="1.5"></path><path d="M1093.37 248.16L1293.55 99.86" stroke="hsl(228.5, 77.2%, 51.5%)" stroke-width="1.5"></path><path d="M1093.37 248.16L1000.18 503.65" stroke="hsl(228.5, 77.2%, 51.5%)" stroke-width="1.5"></path><path d="M1117.51 344.38L1117.51 344.38" stroke="hsl(228.5, 77.2%, 51.5%)" stroke-width="1.5"></path><path d="M1117.51 344.38L1291.15 340.75" stroke="hsl(228.5, 77.2%, 51.5%)" stroke-width="1.5"></path><path d="M1117.51 344.38L1000.18 503.65" stroke="hsl(228.5, 77.2%, 51.5%)" stroke-width="1.5"></path><path d="M1117.51 344.38L1271.45 201.88" stroke="hsl(228.5, 77.2%, 51.5%)" stroke-width="1.5"></path><path d="M1117.51 344.38L1259.42 511.72" stroke="hsl(228.5, 77.2%, 51.5%)" stroke-width="1.5"></path><path d="M1142.56 682.26L1142.56 682.26" stroke="hsl(228.5, 77.2%, 51.5%)" stroke-width="1.5"></path><path d="M1142.56 682.26L1281.33 686.7" stroke="hsl(228.5, 77.2%, 51.5%)" stroke-width="1.5"></path><path d="M1142.56 682.26L1259.42 511.72" stroke="hsl(228.5, 77.2%, 51.5%)" stroke-width="1.5"></path><path d="M1249.68 -77.87L1249.68 -77.87" stroke="hsl(228.5, 77.2%, 51.5%)" stroke-width="1.5"></path><path d="M1249.68 -77.87L1293.55 99.86" stroke="hsl(228.5, 77.2%, 51.5%)" stroke-width="1.5"></path><path d="M1249.68 -77.87L1446.56 -45.66" stroke="hsl(228.5, 77.2%, 51.5%)" stroke-width="1.5"></path><path d="M1249.68 -77.87L1445.94 85.92" stroke="hsl(228.5, 77.2%, 51.5%)" stroke-width="1.5"></path><path d="M1249.68 -77.87L1271.45 201.88" stroke="hsl(228.5, 77.2%, 51.5%)" stroke-width="1.5"></path><path d="M1249.68 -77.87L1542.3 -47.16" stroke="hsl(228.5, 77.2%, 51.5%)" stroke-width="1.5"></path><path d="M1249.68 -77.87L1393.23 218.57" stroke="hsl(228.5, 77.2%, 51.5%)" stroke-width="1.5"></path><path d="M1293.55 99.86L1293.55 99.86" stroke="hsl(228.5, 77.2%, 51.5%)" stroke-width="1.5"></path><path d="M1293.55 99.86L1271.45 201.88" stroke="hsl(228.5, 77.2%, 51.5%)" stroke-width="1.5"></path><path d="M1293.55 99.86L1445.94 85.92" stroke="hsl(228.5, 77.2%, 51.5%)" stroke-width="1.5"></path><path d="M1271.45 201.88L1271.45 201.88" stroke="hsl(228.5, 77.2%, 51.5%)" stroke-width="1.5"></path><path d="M1291.15 340.75L1291.15 340.75" stroke="hsl(228.5, 77.2%, 51.5%)" stroke-width="1.5"></path><path d="M1291.15 340.75L1271.45 201.88" stroke="hsl(228.5, 77.2%, 51.5%)" stroke-width="1.5"></path><path d="M1291.15 340.75L1259.42 511.72" stroke="hsl(228.5, 77.2%, 51.5%)" stroke-width="1.5"></path><path d="M1259.42 511.72L1259.42 511.72" stroke="hsl(228.5, 77.2%, 51.5%)" stroke-width="1.5"></path><path d="M1259.42 511.72L1281.33 686.7" stroke="hsl(228.5, 77.2%, 51.5%)" stroke-width="1.5"></path><path d="M1259.42 511.72L1436.29 562.1" stroke="hsl(228.5, 77.2%, 51.5%)" stroke-width="1.5"></path><path d="M1259.42 511.72L1402.81 379.78" stroke="hsl(228.5, 77.2%, 51.5%)" stroke-width="1.5"></path><path d="M1281.33 686.7L1281.33 686.7" stroke="hsl(228.5, 77.2%, 51.5%)" stroke-width="1.5"></path><path d="M1281.33 686.7L1424.98 638.39" stroke="hsl(228.5, 77.2%, 51.5%)" stroke-width="1.5"></path><path d="M1281.33 686.7L1436.29 562.1" stroke="hsl(228.5, 77.2%, 51.5%)" stroke-width="1.5"></path><path d="M1281.33 686.7L1402.81 379.78" stroke="hsl(228.5, 77.2%, 51.5%)" stroke-width="1.5"></path><path d="M1281.33 686.7L1000.18 503.65" stroke="hsl(228.5, 77.2%, 51.5%)" stroke-width="1.5"></path><path d="M1446.56 -45.66L1446.56 -45.66" stroke="hsl(228.5, 77.2%, 51.5%)" stroke-width="1.5"></path><path d="M1446.56 -45.66L1542.3 -47.16" stroke="hsl(228.5, 77.2%, 51.5%)" stroke-width="1.5"></path><path d="M1436.29 562.1L1436.29 562.1" stroke="hsl(228.5, 77.2%, 51.5%)" stroke-width="1.5"></path><path d="M1436.29 562.1L1424.98 638.39" stroke="hsl(228.5, 77.2%, 51.5%)" stroke-width="1.5"></path><path d="M1436.29 562.1L1602.65 513.34" stroke="hsl(228.5, 77.2%, 51.5%)" stroke-width="1.5"></path><path d="M1436.29 562.1L1402.81 379.78" stroke="hsl(228.5, 77.2%, 51.5%)" stroke-width="1.5"></path><path d="M1424.98 638.39L1424.98 638.39" stroke="hsl(228.5, 77.2%, 51.5%)" stroke-width="1.5"></path><path d="M1424.98 638.39L1259.42 511.72" stroke="hsl(228.5, 77.2%, 51.5%)" stroke-width="1.5"></path><path d="M1424.98 638.39L1602.65 513.34" stroke="hsl(228.5, 77.2%, 51.5%)" stroke-width="1.5"></path><path d="M1424.98 638.39L1402.81 379.78" stroke="hsl(228.5, 77.2%, 51.5%)" stroke-width="1.5"></path><path d="M1424.98 638.39L1142.56 682.26" stroke="hsl(228.5, 77.2%, 51.5%)" stroke-width="1.5"></path><path d="M1542.3 -47.16L1542.3 -47.16" stroke="hsl(228.5, 77.2%, 51.5%)" stroke-width="1.5"></path><path d="M1542.3 -47.16L1604.25 102.97" stroke="hsl(228.5, 77.2%, 51.5%)" stroke-width="1.5"></path><path d="M1542.3 -47.16L1445.94 85.92" stroke="hsl(228.5, 77.2%, 51.5%)" stroke-width="1.5"></path><path d="M1542.3 -47.16L1537.68 221.55" stroke="hsl(228.5, 77.2%, 51.5%)" stroke-width="1.5"></path><path d="M1604.25 102.97L1604.25 102.97" stroke="hsl(228.5, 77.2%, 51.5%)" stroke-width="1.5"></path><path d="M1604.25 102.97L1537.68 221.55" stroke="hsl(228.5, 77.2%, 51.5%)" stroke-width="1.5"></path><path d="M1604.25 102.97L1445.94 85.92" stroke="hsl(228.5, 77.2%, 51.5%)" stroke-width="1.5"></path><path d="M1537.68 221.55L1537.68 221.55" stroke="hsl(228.5, 77.2%, 51.5%)" stroke-width="1.5"></path><path d="M1537.68 221.55L1445.94 85.92" stroke="hsl(228.5, 77.2%, 51.5%)" stroke-width="1.5"></path><path d="M1537.68 221.55L1402.81 379.78" stroke="hsl(228.5, 77.2%, 51.5%)" stroke-width="1.5"></path><path d="M1537.68 221.55L1271.45 201.88" stroke="hsl(228.5, 77.2%, 51.5%)" stroke-width="1.5"></path><path d="M1602.65 513.34L1602.65 513.34" stroke="hsl(228.5, 77.2%, 51.5%)" stroke-width="1.5"></path><circle r="25" cx="648.01" cy="667.33" fill="url(&quot;#SvgjsRadialGradient1001&quot;)"></circle><circle r="25" cx="832.72" cy="656.56" fill="url(&quot;#SvgjsRadialGradient1001&quot;)"></circle><circle r="25" cx="1000.18" cy="503.65" fill="url(&quot;#SvgjsRadialGradient1001&quot;)"></circle><circle r="25" cx="1445.94" cy="85.92" fill="url(&quot;#SvgjsRadialGradient1001&quot;)"></circle><circle r="25" cx="1393.23" cy="218.57" fill="url(&quot;#SvgjsRadialGradient1001&quot;)"></circle><circle r="25" cx="1402.81" cy="379.78" fill="url(&quot;#SvgjsRadialGradient1001&quot;)"></circle><circle r="25" cx="1611.03" cy="361.42" fill="url(&quot;#SvgjsRadialGradient1001&quot;)"></circle><circle r="5" cx="-110.95" cy="493.32" fill="#8b9ad9"></circle><circle r="5" cx="-79.6" cy="672.9" fill="#8b9ad9"></circle><circle r="5" cx="64.92" cy="523.25" fill="#8b9ad9"></circle><circle r="5" cx="87.82" cy="641.49" fill="#8b9ad9"></circle><circle r="5" cx="192.61" cy="517.94" fill="#8b9ad9"></circle><circle r="5" cx="258.62" cy="677.48" fill="#8b9ad9"></circle><circle r="5" cx="385.26" cy="539.39" fill="#8b9ad9"></circle><circle r="5" cx="368.75" cy="674.34" fill="#8b9ad9"></circle><circle r="5" cx="519.97" cy="507.11" fill="#8b9ad9"></circle><circle r="5" cx="530.55" cy="644.18" fill="#8b9ad9"></circle><circle r="5" cx="669.45" cy="514.57" fill="#8b9ad9"></circle><circle r="5" cx="818.54" cy="502.83" fill="#8b9ad9"></circle><circle r="5" cx="989.68" cy="406.45" fill="#8b9ad9"></circle><circle r="5" cx="1093.37" cy="248.16" fill="#8b9ad9"></circle><circle r="5" cx="1117.51" cy="344.38" fill="#8b9ad9"></circle><circle r="5" cx="1142.56" cy="682.26" fill="#8b9ad9"></circle><circle r="5" cx="1249.68" cy="-77.87" fill="#8b9ad9"></circle><circle r="5" cx="1293.55" cy="99.86" fill="#8b9ad9"></circle><circle r="5" cx="1271.45" cy="201.88" fill="#8b9ad9"></circle><circle r="5" cx="1291.15" cy="340.75" fill="#8b9ad9"></circle><circle r="5" cx="1259.42" cy="511.72" fill="#8b9ad9"></circle><circle r="5" cx="1281.33" cy="686.7" fill="#8b9ad9"></circle><circle r="5" cx="1446.56" cy="-45.66" fill="#8b9ad9"></circle><circle r="5" cx="1436.29" cy="562.1" fill="#8b9ad9"></circle><circle r="5" cx="1424.98" cy="638.39" fill="#8b9ad9"></circle><circle r="5" cx="1542.3" cy="-47.16" fill="#8b9ad9"></circle><circle r="5" cx="1604.25" cy="102.97" fill="#8b9ad9"></circle><circle r="5" cx="1537.68" cy="221.55" fill="#8b9ad9"></circle><circle r="5" cx="1602.65" cy="513.34" fill="#8b9ad9"></circle></g><defs><mask id="SvgjsMask1000"><rect width="1440" height="560" fill="#ffffff"></rect></mask><radialGradient id="SvgjsRadialGradient1001"><stop stop-color="#ffffff" offset="0.1"></stop><stop stop-color="#1735b3" offset="0.2"></stop><stop stop-color="rgba(23, 53, 179, 0)" offset="1"></stop></radialGradient></defs></svg>